<svg width="119" height="118" viewBox="0 0 119 118" fill="none" xmlns="http://www.w3.org/2000/svg">
<g filter="url(#filter0_d_1_19)">
<ellipse cx="59.5" cy="55" rx="55.5" ry="55" fill="#51A88B"/>
</g>
<g filter="url(#filter1_d_1_19)">
<ellipse cx="59.8083" cy="55" rx="49.6417" ry="47.8824" fill="#C4C4C4"/>
</g>
<path d="M30.7203 64.0588H27.0406L27.0641 61.5276H30.7203C31.7125 61.5276 32.5445 61.3088 33.2164 60.8713C33.8883 60.426 34.3961 59.7893 34.7398 58.9612C35.0836 58.1252 35.2555 57.1252 35.2555 55.9612V55.0822C35.2555 54.1838 35.1578 53.3908 34.9625 52.7033C34.7672 52.0158 34.4781 51.4377 34.0953 50.969C33.7203 50.5002 33.2555 50.1447 32.7008 49.9026C32.1461 49.6604 31.5094 49.5393 30.7906 49.5393H26.9703V46.9963H30.7906C31.9312 46.9963 32.9703 47.1877 33.9078 47.5705C34.8531 47.9533 35.6695 48.5041 36.357 49.2229C37.0523 49.9338 37.5836 50.7854 37.9508 51.7776C38.3258 52.7697 38.5133 53.8791 38.5133 55.1057V55.9612C38.5133 57.1799 38.3258 58.2893 37.9508 59.2893C37.5836 60.2815 37.0523 61.133 36.357 61.844C35.6695 62.5549 34.8492 63.1018 33.8961 63.4846C32.943 63.8674 31.8844 64.0588 30.7203 64.0588ZM28.8453 46.9963V64.0588H25.6226V46.9963H28.8453ZM44.0562 46.0588V64.0588H40.9508V46.0588H44.0562ZM43.5641 57.2619H42.65C42.65 56.3791 42.7672 55.5666 43.0016 54.8244C43.2359 54.0822 43.568 53.4377 43.9976 52.8908C44.4273 52.3362 44.9391 51.9065 45.5328 51.6018C46.1344 51.2971 46.7984 51.1447 47.525 51.1447C48.15 51.1447 48.7164 51.2346 49.2242 51.4143C49.7398 51.5862 50.1812 51.8635 50.5484 52.2463C50.9156 52.6291 51.1969 53.1291 51.3922 53.7463C51.5953 54.3557 51.6969 55.0979 51.6969 55.9729V64.0588H48.5797V55.9494C48.5797 55.3635 48.4937 54.9026 48.3219 54.5666C48.15 54.2229 47.9039 53.9768 47.5836 53.8283C47.2711 53.6799 46.8844 53.6057 46.4234 53.6057C45.9234 53.6057 45.4937 53.7033 45.1344 53.8987C44.775 54.0862 44.4781 54.3479 44.2437 54.6838C44.0172 55.0197 43.8453 55.4065 43.7281 55.844C43.6187 56.2815 43.5641 56.7541 43.5641 57.2619ZM60.1226 64.2932C59.1617 64.2932 58.2984 64.1369 57.5328 63.8244C56.7672 63.5119 56.1148 63.0783 55.5758 62.5237C55.0445 61.9612 54.6344 61.3088 54.3453 60.5666C54.0641 59.8166 53.9234 59.0119 53.9234 58.1526V57.6838C53.9234 56.7072 54.0641 55.8205 54.3453 55.0237C54.6266 54.219 55.025 53.5276 55.5406 52.9494C56.0562 52.3713 56.6734 51.926 57.3922 51.6135C58.1109 51.301 58.9039 51.1447 59.7711 51.1447C60.6695 51.1447 61.4625 51.2971 62.15 51.6018C62.8375 51.8987 63.4117 52.3205 63.8726 52.8674C64.3336 53.4143 64.6812 54.0705 64.9156 54.8362C65.15 55.594 65.2672 56.4338 65.2672 57.3557V58.6565H55.3297V56.5237H62.2203V56.2893C62.2047 55.7971 62.1109 55.3479 61.9391 54.9416C61.7672 54.5276 61.5016 54.1994 61.1422 53.9572C60.7828 53.7072 60.318 53.5822 59.7476 53.5822C59.2867 53.5822 58.8844 53.6838 58.5406 53.8869C58.2047 54.0822 57.9234 54.3635 57.6969 54.7307C57.4781 55.0901 57.3141 55.5197 57.2047 56.0197C57.0953 56.5197 57.0406 57.0744 57.0406 57.6838V58.1526C57.0406 58.6838 57.1109 59.176 57.2516 59.6291C57.4 60.0822 57.6148 60.4768 57.8961 60.8127C58.1851 61.1408 58.5289 61.3987 58.9273 61.5862C59.3336 61.7658 59.7945 61.8557 60.3101 61.8557C60.9586 61.8557 61.5445 61.7307 62.068 61.4807C62.5992 61.2229 63.0601 60.844 63.4508 60.344L65.0094 61.9612C64.7437 62.3518 64.3844 62.7268 63.9312 63.0862C63.4859 63.4455 62.9469 63.7385 62.3141 63.9651C61.6812 64.1838 60.9508 64.2932 60.1226 64.2932ZM70.4351 46.0471V64.0588H67.3414V46.0471H70.4351ZM78.3805 51.3791L72.8609 57.5783L69.8726 60.6135L68.8883 58.2112L71.1969 55.3049L74.6422 51.3791H78.3805ZM75.2164 64.0588L71.2906 58.1526L73.3531 56.1487L78.8023 64.0588H75.2164ZM85.482 64.2932C84.5211 64.2932 83.6578 64.1369 82.8922 63.8244C82.1266 63.5119 81.4742 63.0783 80.9351 62.5237C80.4039 61.9612 79.9937 61.3088 79.7047 60.5666C79.4234 59.8166 79.2828 59.0119 79.2828 58.1526V57.6838C79.2828 56.7072 79.4234 55.8205 79.7047 55.0237C79.9859 54.219 80.3844 53.5276 80.9 52.9494C81.4156 52.3713 82.0328 51.926 82.7516 51.6135C83.4703 51.301 84.2633 51.1447 85.1305 51.1447C86.0289 51.1447 86.8219 51.2971 87.5094 51.6018C88.1969 51.8987 88.7711 52.3205 89.232 52.8674C89.693 53.4143 90.0406 54.0705 90.275 54.8362C90.5094 55.594 90.6266 56.4338 90.6266 57.3557V58.6565H80.6891V56.5237H87.5797V56.2893C87.5641 55.7971 87.4703 55.3479 87.2984 54.9416C87.1266 54.5276 86.8609 54.1994 86.5016 53.9572C86.1422 53.7072 85.6773 53.5822 85.107 53.5822C84.6461 53.5822 84.2437 53.6838 83.9 53.8869C83.5641 54.0822 83.2828 54.3635 83.0562 54.7307C82.8375 55.0901 82.6734 55.5197 82.5641 56.0197C82.4547 56.5197 82.4 57.0744 82.4 57.6838V58.1526C82.4 58.6838 82.4703 59.176 82.6109 59.6291C82.7594 60.0822 82.9742 60.4768 83.2555 60.8127C83.5445 61.1408 83.8883 61.3987 84.2867 61.5862C84.693 61.7658 85.1539 61.8557 85.6695 61.8557C86.318 61.8557 86.9039 61.7307 87.4273 61.4807C87.9586 61.2229 88.4195 60.844 88.8101 60.344L90.3687 61.9612C90.1031 62.3518 89.7437 62.7268 89.2906 63.0862C88.8453 63.4455 88.3062 63.7385 87.6734 63.9651C87.0406 64.1838 86.3101 64.2932 85.482 64.2932Z" fill="black"/>
<defs>
<filter id="filter0_d_1_19" x="0" y="0" width="119" height="118" filterUnits="userSpaceOnUse" color-interpolation-filters="sRGB">
<feFlood flood-opacity="0" result="BackgroundImageFix"/>
<feColorMatrix in="SourceAlpha" type="matrix" values="0 0 0 0 0 0 0 0 0 0 0 0 0 0 0 0 0 0 127 0" result="hardAlpha"/>
<feOffset dy="4"/>
<feGaussianBlur stdDeviation="2"/>
<feComposite in2="hardAlpha" operator="out"/>
<feColorMatrix type="matrix" values="0 0 0 0 0 0 0 0 0 0 0 0 0 0 0 0 0 0 0.25 0"/>
<feBlend mode="normal" in2="BackgroundImageFix" result="effect1_dropShadow_1_19"/>
<feBlend mode="normal" in="SourceGraphic" in2="effect1_dropShadow_1_19" result="shape"/>
</filter>
<filter id="filter1_d_1_19" x="6.16663" y="7.11768" width="107.283" height="103.765" filterUnits="userSpaceOnUse" color-interpolation-filters="sRGB">
<feFlood flood-opacity="0" result="BackgroundImageFix"/>
<feColorMatrix in="SourceAlpha" type="matrix" values="0 0 0 0 0 0 0 0 0 0 0 0 0 0 0 0 0 0 127 0" result="hardAlpha"/>
<feOffset dy="4"/>
<feGaussianBlur stdDeviation="2"/>
<feComposite in2="hardAlpha" operator="out"/>
<feColorMatrix type="matrix" values="0 0 0 0 0 0 0 0 0 0 0 0 0 0 0 0 0 0 0.25 0"/>
<feBlend mode="normal" in2="BackgroundImageFix" result="effect1_dropShadow_1_19"/>
<feBlend mode="normal" in="SourceGraphic" in2="effect1_dropShadow_1_19" result="shape"/>
</filter>
</defs>
</svg>
